<?xml version="1.0" encoding="utf-8"?>
<!-- Generator: Adobe Illustrator 16.0.0, SVG Export Plug-In . SVG Version: 6.00 Build 0)  -->
<!DOCTYPE svg PUBLIC "-//W3C//DTD SVG 1.1//EN" "http://www.w3.org/Graphics/SVG/1.1/DTD/svg11.dtd">
<svg version="1.1" xmlns="http://www.w3.org/2000/svg" xmlns:xlink="http://www.w3.org/1999/xlink" x="0px" y="0px" width="800px"
	 height="600px" viewBox="0 0 800 600" enable-background="new 0 0 800 600" xml:space="preserve">
<g id="A">
</g>
<g id="F">
	<g>
		<path fill="#626A76" d="M301,163h-46.5l-74.584,194.25c9.916,33.582,26.417,60.084,26.417,60.084L226,367h107.333L365,451h45.97
			l5.364-7.5L301,163z M239.667,325l38-105l39.667,105H239.667z"/>
		<path fill="#626A76" d="M447,168.146l5.667-6.146H611c0,0,4.25-2.25,23,42.25V207H496l-0.5,74H620l5.625,5.125l-0.25,34.313
			L621.5,325H495l-0.583,121.917L490.5,451H452l-4.583-4.124L447.375,168"/>
	</g>
</g>
</svg>
