<?xml version="1.0" encoding="utf-8"?>
<!-- Generator: Adobe Illustrator 16.0.0, SVG Export Plug-In . SVG Version: 6.00 Build 0)  -->
<!DOCTYPE svg PUBLIC "-//W3C//DTD SVG 1.1//EN" "http://www.w3.org/Graphics/SVG/1.1/DTD/svg11.dtd">
<svg version="1.1" id="Capa_1" xmlns="http://www.w3.org/2000/svg" xmlns:xlink="http://www.w3.org/1999/xlink" x="0px" y="0px"
	 width="147px" height="36px" viewBox="0 0 147 36" enable-background="new 0 0 147 36" xml:space="preserve">
<g>
	<path fill="#626A76" d="M31.633,2.753h-4.884l-7.833,20.401c1.042,3.527,2.774,6.31,2.775,6.31l2.065-5.286h11.272L38.354,33h4.828
		l0.563-0.788L31.633,2.753z M25.191,20.5l3.991-11.028L33.348,20.5H25.191z"/>
	<path fill="#626A76" d="M46.966,3.294l0.595-0.646H64.19c0,0,0.446-0.236,2.416,4.438v0.288H52.112l-0.053,7.772h13.075
		l0.591,0.538l-0.026,3.604l-0.407,0.479H52.007L51.946,32.57L51.535,33h-4.043l-0.481-0.434L47.005,3.278"/>
</g>
<g>
	<rect x="66.605" y="23.333" fill="none" width="81" height="25.333"/>
	<text transform="matrix(1 0 0 1 66.605 31.9727)" fill="#626A76" font-family="'HelveticaLTStd-Light'" font-size="12">developer</text>
</g>
</svg>
