<?xml version="1.0" encoding="utf-8"?>
<!-- Generator: Adobe Illustrator 16.0.0, SVG Export Plug-In . SVG Version: 6.00 Build 0)  -->
<!DOCTYPE svg PUBLIC "-//W3C//DTD SVG 1.1//EN" "http://www.w3.org/Graphics/SVG/1.1/DTD/svg11.dtd">
<svg version="1.1" id="Capa_1" xmlns="http://www.w3.org/2000/svg" xmlns:xlink="http://www.w3.org/1999/xlink" x="0px" y="0px"
	 width="43px" height="33px" viewBox="0 0 43 33" enable-background="new 0 0 43 33" xml:space="preserve">
<g>
	<path fill="#626A76" d="M11.982,5.739h-4.25L0.916,23.493c0.906,3.069,2.414,5.491,2.413,5.491l1.798-4.6h9.81l2.895,7.678h4.201
		l0.49-0.687L11.982,5.739z M6.377,21l3.473-9.598L13.476,21H6.377z"/>
	<path fill="#626A76" d="M25.326,6.21l0.52-0.562h14.471c0,0,0.389-0.206,2.103,3.861V9.76H29.807l-0.047,6.764h11.379l0.514,0.468
		l-0.022,3.137l-0.354,0.416H29.714L29.66,31.689l-0.357,0.371h-3.519l-0.421-0.377L25.359,6.196"/>
</g>
</svg>
